# File created by Blade
# Date/Time:  Tue Jan 27 19:23:26 2015
#---------------------------------------------------------
:version 1.10
:name HOM
:units
  mass 1.0
  length 1.000000
  angle deg
:documentation
     Acclaim Skeleton File
:root
   axis xyz
   order TX TY TZ RX RY RZ
   position 0.000000 0.000000 0.000000
   orientation 0 0 0
:bonedata
   begin
      id 1
      name Spine_dum
      direction 0.000000 1.000000 0.000000
      length 6.116652
      axis 0.0 0.0 0.0 xyz
   end
   begin
      id 2
      name LeftUpLeg_dum
      direction 1.000000 0.000000 0.000000
      length 4.711765
      axis 0.0 0.0 0.0 xyz
   end
   begin
      id 3
      name RightUpLeg_dum
      direction -1.000000 0.000000 0.000000
      length 4.711765
      axis 0.0 0.0 0.0 xyz
   end
   begin
      id 4
      name Spine
      direction 0.000000 1.000000 0.000000
      length 0.000000
      axis 0.0 0.0 0.0 xyz
      dof rx ry rz
   end
   begin
      id 5
      name Spine_dum1
      direction 0.000000 1.000000 0.000000
      length 15.225563
      axis 0.0 0.0 0.0 xyz
   end
   begin
      id 6
      name Spine_dum2
      direction 0.000000 1.000000 0.000000
      length 8.977654
      axis 0.0 0.0 0.0 xyz
   end
   begin
      id 7
      name Spine_dum3
      direction 0.000000 1.000000 0.000000
      length 8.977654
      axis 0.0 0.0 0.0 xyz
   end
   begin
      id 8
      name Head
      direction 0.000000 1.000000 0.000000
      length 4.527550
      axis 0.0 0.0 0.0 xyz
      dof rx ry rz
   end
   begin
      id 9
      name LeftShoulder
      direction 1.000000 0.000000 0.000000
      length 7.110130
      axis 0.0 0.0 -90.0 xyz
      dof rx ry rz
   end
   begin
      id 10
      name LeftArm
      direction 1.000000 0.000000 0.000000
      length 10.398341
      axis 0.0 0.0 -90.0 xyz
      dof rx ry rz
   end
   begin
      id 11
      name LeftForeArm
      direction 1.000000 0.000000 0.000000
      length 8.888997
      axis 0.0 0.0 -90.0 xyz
      dof ry rz rx
   end
   begin
      id 12
      name LeftHand
      direction 0.000000 0.000000 0.000000
      length 0.000000
      axis 0.0 0.0 -90.0 xyz
      dof rx ry rz
   end
   begin
      id 13
      name LeftHand_dum1
      direction 0.000000 0.000000 0.000000
      length 0.000000
      axis 0.0 0.0 -90.0 xyz
   end
   begin
      id 14
      name LeftHand_dum2
      direction 1.000000 0.000000 0.000000
      length 3.937000
      axis 0.0 0.0 -90.0 xyz
   end
   begin
      id 15
      name LeftHandThumb1
      direction 0.000000 0.000000 1.000000
      length 3.937000
      axis 0.0 0.0 -90.0 xyz
      dof rx rz ry
   end
   begin
      id 16
      name RightShoulder
      direction -1.000000 0.000000 0.000000
      length 7.110130
      axis 0.0 0.0 90.0 xyz
      dof rx ry rz
   end
   begin
      id 17
      name RightArm
      direction -1.000000 0.000000 0.000000
      length 10.398341
      axis 0.0 0.0 90.0 xyz
      dof rx ry rz
   end
   begin
      id 18
      name RightForeArm
      direction -1.000000 0.000000 0.000000
      length 8.888997
      axis 0.0 0.0 90.0 xyz
      dof ry rz rx
   end
   begin
      id 19
      name RightHand
      direction 0.000000 0.000000 0.000000
      length 0.000000
      axis 0.0 0.0 90.0 xyz
      dof rx ry rz
   end
   begin
      id 20
      name RightHand_dum1
      direction 0.000000 0.000000 0.000000
      length 0.000000
      axis 0.0 0.0 90.0 xyz
   end
   begin
      id 21
      name RightHand_dum2
      direction -1.000000 0.000000 0.000000
      length 3.937000
      axis 0.0 0.0 90.0 xyz
   end
   begin
      id 22
      name RightHandThumb1
      direction 0.000000 0.000000 1.000000
      length 3.937000
      axis 0.0 0.0 90.0 xyz
      dof rx rz ry
   end
   begin
      id 23
      name LeftUpLeg
      direction 0.000000 -1.000000 0.000000
      length 15.510451
      axis 0.0 0.0 0.0 xyz
      dof rx ry rz
   end
   begin
      id 24
      name LeftLeg
      direction 0.000000 -1.000000 0.000000
      length 14.858061
      axis 0.0 0.0 0.0 xyz
      dof rx ry rz
   end
   begin
      id 25
      name LeftFoot
      direction 0.000000 -0.258819 0.965926
      length 5.128852
      axis 15.0 0.0 0.0 xyz
      dof rx ry rz
   end
   begin
      id 26
      name LeftToeBase
      direction 0.000000 0.000000 1.000000
      length 2.952750
      axis 0.0 0.0 0.0 xyz
      dof rx ry rz
   end
   begin
      id 27
      name RightUpLeg
      direction 0.000000 -1.000000 0.000000
      length 15.510451
      axis 0.0 0.0 0.0 xyz
      dof rx ry rz
   end
   begin
      id 28
      name RightLeg
      direction 0.000000 -1.000000 0.000000
      length 14.858061
      axis 0.0 0.0 0.0 xyz
      dof rx ry rz
   end
   begin
      id 29
      name RightFoot
      direction 0.000000 -0.258819 0.965926
      length 5.128852
      axis 15.0 0.0 0.0 xyz
      dof rx ry rz
   end
   begin
      id 30
      name RightToeBase
      direction 0.000000 0.000000 1.000000
      length 2.952750
      axis 0.0 0.0 0.0 xyz
      dof rx ry rz
   end
:hierarchy
   begin
      root Spine_dum LeftUpLeg_dum RightUpLeg_dum
      Spine_dum Spine
      LeftUpLeg_dum LeftUpLeg
      RightUpLeg_dum RightUpLeg
      Spine Spine_dum1 Spine_dum2 Spine_dum3
      Spine_dum1 Head
      Spine_dum2 LeftShoulder
      Spine_dum3 RightShoulder
      LeftShoulder LeftArm
      LeftArm LeftForeArm
      LeftForeArm LeftHand
      LeftHand LeftHand_dum1 LeftHand_dum2
      LeftHand_dum1 LeftHandThumb1
      RightShoulder RightArm
      RightArm RightForeArm
      RightForeArm RightHand
      RightHand RightHand_dum1 RightHand_dum2
      RightHand_dum1 RightHandThumb1
      LeftUpLeg LeftLeg
      LeftLeg LeftFoot
      LeftFoot LeftToeBase
      RightUpLeg RightLeg
      RightLeg RightFoot
      RightFoot RightToeBase
   end

# File created by Blade
# Date/Time:  Tue Jan 27 19:23:16 2015
# Frame Rate: 120.000 fps
#------------------------------------------------------
:FULLY-SPECIFIED
:DEGREES
1369
root 3.814095 32.318353 0.179608 -4.773066 3.979254 0.850008
Spine 1.765009 17.408641 -0.094195
Head 1.753660 -29.961705 -1.544717
LeftShoulder -1.943675 -8.110032 22.584867
LeftArm -4.468329 43.610063 -102.951110
LeftForeArm 2.775384 -0.000000 12.152655
LeftHand 10.061338 -0.000000 -5.117216
LeftHandThumb1 -26.253704 0.000000 33.147579
RightShoulder -0.322621 13.383746 -41.470942
RightArm 50.554186 18.991873 99.564495
RightForeArm 32.741103 -0.000000 10.543729
RightHand 21.304950 0.000000 -6.508582
RightHandThumb1 -24.326973 -0.000000 -32.862282
LeftUpLeg 10.265281 -1.154136 -0.659516
LeftLeg 2.656432 -0.000000 -0.000000
LeftFoot -17.697486 13.048517 -23.395977
LeftToeBase 17.032995 -0.000000 -0.000000
RightUpLeg 10.642707 -11.100826 0.567471
RightLeg -0.015115 -0.000000 0.000000
RightFoot -12.811985 -14.711146 13.503618
RightToeBase 10.697326 -0.000000 -0.000000
1370
root 3.815729 32.319252 0.174536 -4.750509 4.023951 0.860779
Spine 1.746503 17.374144 -0.103288
Head 1.767813 -29.961521 -1.579137
LeftShoulder -1.941667 -8.099548 22.571756
LeftArm -4.451995 43.588382 -102.928530
LeftForeArm 2.833840 0.000000 12.008496
LeftHand 10.138788 0.000000 -5.137627
LeftHandThumb1 -26.253704 0.000000 33.147579
RightShoulder -0.333983 13.504012 -41.543623
RightArm 50.703735 19.218940 99.359264
RightForeArm 32.778628 0.000000 11.041759
RightHand 21.318925 -0.000000 -6.664376
RightHandThumb1 -24.326973 -0.000000 -32.862282
LeftUpLeg 10.243799 -1.176958 -0.673260
LeftLeg 2.634755 -0.000000 -0.000000
LeftFoot -17.670831 13.036134 -23.383929
LeftToeBase 16.957318 -0.000000 -0.000000
RightUpLeg 10.644802 -11.216477 0.548080
RightLeg -0.065304 -0.000000 0.000000
RightFoot -12.777992 -14.694265 13.433341
RightToeBase 10.770138 -0.000000 -0.000000
1371
root 3.814873 32.320246 0.169177 -4.720180 4.065883 0.856130
Spine 1.717107 17.354289 -0.109887
Head 1.771233 -29.966852 -1.583980
LeftShoulder -1.920809 -8.116876 22.560372
LeftArm -4.457400 43.525869 -102.913884
LeftForeArm 2.899134 -0.000000 11.858813
LeftHand 10.210002 -0.000000 -5.192954
LeftHandThumb1 -26.253704 0.000000 33.147579
RightShoulder -0.380109 13.583983 -41.597551
RightArm 50.917519 19.418415 99.146947
RightForeArm 32.730636 0.000000 11.539414
RightHand 21.425748 -0.000000 -6.884028
RightHandThumb1 -24.326973 -0.000000 -32.862282
LeftUpLeg 10.203100 -1.170274 -0.659230
LeftLeg 2.607704 -0.000000 -0.000000
LeftFoot -17.616400 13.008187 -23.366075
LeftToeBase 17.035036 -0.000000 -0.000000
RightUpLeg 10.590813 -11.194508 0.560311
RightLeg -0.030563 -0.000000 0.000000
RightFoot -12.793925 -14.706873 13.496479
RightToeBase 10.773525 -0.000000 -0.000000
1372
root 3.815105 32.320961 0.164112 -4.694783 4.103743 0.862994
Spine 1.690180 17.331785 -0.130510
Head 1.786340 -29.959439 -1.580616
LeftShoulder -1.898042 -8.131912 22.546701
LeftArm -4.458544 43.471826 -102.884212
LeftForeArm 2.493925 -0.000000 11.714172
LeftHand 10.275624 -0.000000 -7.118028
LeftHandThumb1 -26.253704 0.000000 33.147579
RightShoulder -0.427909 13.684100 -41.654293
RightArm 51.124208 19.616628 98.918226
RightForeArm 32.629933 0.000000 12.041126
RightHand 21.404783 -0.000000 -7.014790
RightHandThumb1 -24.326973 -0.000000 -32.862282
LeftUpLeg 10.168608 -1.186726 -0.665753
LeftLeg 2.595710 -0.000000 -0.000000
LeftFoot -17.574109 13.012631 -23.322336
LeftToeBase 16.996536 -0.000000 -0.000000
RightUpLeg 10.558931 -11.220323 0.555628
RightLeg -0.024541 -0.000000 0.000000
RightFoot -12.805996 -14.710157 13.512148
RightToeBase 10.751554 -0.000000 -0.000000
1373
root 3.814238 32.321704 0.160509 -4.676049 4.140450 0.867233
Spine 1.667314 17.330616 -0.156329
Head 1.796027 -30.007793 -1.558442
LeftShoulder -1.857410 -8.157238 22.560970
LeftArm -4.472148 43.444468 -102.892312
LeftForeArm 2.421137 -0.000000 11.579986
LeftHand 10.300662 -0.000000 -7.262808
LeftHandThumb1 -26.253704 0.000000 33.147579
RightShoulder -0.514346 13.742917 -41.705011
RightArm 51.356769 19.800005 98.702030
RightForeArm 32.451290 -0.000000 12.590011
RightHand 21.439540 -0.000000 -7.054890
RightHandThumb1 -24.326973 -0.000000 -32.862282
LeftUpLeg 10.139789 -1.180783 -0.661306
LeftLeg 2.590825 -0.000000 -0.000000
LeftFoot -17.537687 12.974776 -23.316195
LeftToeBase 16.967283 -0.000000 -0.000000
RightUpLeg 10.536964 -11.237008 0.556168
RightLeg -0.020928 -0.000000 0.000000
RightFoot -12.804527 -14.715629 13.529398
RightToeBase 10.787477 -0.000000 -0.000000
1374
root 3.815336 32.322466 0.158528 -4.674821 4.166490 0.877031
Spine 1.653731 17.315037 -0.173574
Head 1.839193 -29.998113 -1.567071
LeftShoulder -1.815063 -8.171394 22.575364
LeftArm -4.505565 43.369951 -102.915821
LeftForeArm 2.471128 -0.000000 11.479006
LeftHand 10.274902 -0.000000 -7.194183
LeftHandThumb1 -26.253704 0.000000 33.147579
RightShoulder -0.543136 13.891906 -41.757230
RightArm 51.503465 20.015793 98.450649
RightForeArm 32.422851 -0.000000 13.178366
RightHand 21.475227 -0.000000 -7.340631
RightHandThumb1 -24.326973 -0.000000 -32.862282
LeftUpLeg 10.124546 -1.147496 -0.662816
LeftLeg 2.602702 -0.000000 -0.000000
LeftFoot -17.501784 12.925171 -23.291645
LeftToeBase 17.009328 -0.000000 -0.000000
RightUpLeg 10.537419 -11.265660 0.540470
RightLeg -0.022041 -0.000000 0.000000
RightFoot -12.790333 -14.710100 13.514826
RightToeBase 10.671338 -0.000000 -0.000000
1375
root 3.814304 32.323129 0.156464 -4.673823 4.191995 0.877618
Spine 1.641325 17.313307 -0.191116
Head 1.868480 -30.003827 -1.545211
LeftShoulder -1.771377 -8.190587 22.593643
LeftArm -4.523305 43.356539 -102.926898
LeftForeArm 2.457368 0.000000 11.372751
LeftHand 10.364345 -0.000000 -7.252567
LeftHandThumb1 -26.253704 0.000000 33.147579
RightShoulder -0.582057 14.022848 -41.800629
RightArm 51.649038 20.262114 98.233739
RightForeArm 32.368049 -0.000000 13.855147
RightHand 21.643691 -0.000000 -7.683630
RightHandThumb1 -24.326973 -0.000000 -32.862282
LeftUpLeg 10.112528 -1.149006 -0.656240
LeftLeg 2.609768 -0.000000 -0.000000
LeftFoot -17.494476 12.883883 -23.311423
LeftToeBase 17.014094 -0.000000 -0.000000
RightUpLeg 10.533298 -11.278480 0.542473
RightLeg -0.019008 -0.000000 0.000000
RightFoot -12.779109 -14.736093 13.467857
RightToeBase 10.699370 -0.000000 -0.000000
1376
root 3.813411 32.323405 0.154872 -4.675425 4.213827 0.883065
Spine 1.631491 17.308937 -0.214075
Head 1.893718 -30.008742 -1.522503
LeftShoulder -1.742243 -8.211930 22.618717
LeftArm -4.553243 43.333010 -102.942013
LeftForeArm 2.439690 -0.000000 11.296233
LeftHand 10.362678 0.000000 -7.259454
LeftHandThumb1 -26.253704 0.000000 33.147579
RightShoulder -0.607481 14.149445 -41.850399
RightArm 51.742533 20.482647 97.967969
RightForeArm 32.532176 -0.000000 14.642354
RightHand 21.633909 -0.000000 -7.724758
RightHandThumb1 -24.326973 -0.000000 -32.862282
LeftUpLeg 10.105483 -1.163630 -0.662321
LeftLeg 2.623022 -0.000000 -0.000000
LeftFoot -17.489471 12.890946 -23.279568
LeftToeBase 16.940294 -0.000000 -0.000000
RightUpLeg 10.526908 -11.312733 0.532067
RightLeg -0.000816 -0.000000 0.000000
RightFoot -12.789498 -14.696065 13.510366
RightToeBase 10.709230 -0.000000 -0.000000
1377
root 3.811625 32.323176 0.152693 -4.684972 4.233674 0.883541
Spine 1.630819 17.144763 -0.201279
Head 1.954066 -29.849315 -1.617320
LeftShoulder -1.844754 -8.165542 22.634271
LeftArm -4.586640 43.347011 -102.940561
LeftForeArm 2.533634 -0.000000 11.264565
LeftHand 10.278054 -0.000000 -6.736757
LeftHandThumb1 -26.253704 0.000000 33.147579
RightShoulder -0.470800 14.392997 -41.928269
RightArm 51.813893 20.791936 97.833437
RightForeArm 32.753349 -0.000000 15.575076
RightHand 21.708495 0.000000 -8.037981
RightHandThumb1 -24.326973 -0.000000 -32.862282
LeftUpLeg 10.103254 -1.151306 -0.655849
LeftLeg 2.631748 -0.000000 -0.000000
LeftFoot -17.417151 12.871120 -23.163448
LeftToeBase 16.828396 -0.000000 -0.000000
RightUpLeg 10.526496 -11.314990 0.534381
RightLeg 0.018339 -0.000000 -0.000000
RightFoot -12.812556 -14.717645 13.506870
RightToeBase 10.736199 -0.000000 -0.000000
